<?xml version="1.0" encoding="UTF-8"?>
<!DOCTYPE svg PUBLIC "-//W3C//DTD SVG 1.1//EN" "http://www.w3.org/Graphics/SVG/1.1/DTD/svg11.dtd">
<!-- Creator: CorelDRAW X7 -->
<svg xmlns="http://www.w3.org/2000/svg" xml:space="preserve" width="2460px" height="1395px" version="1.1" shape-rendering="geometricPrecision" text-rendering="geometricPrecision" image-rendering="optimizeQuality" fill-rule="evenodd" clip-rule="evenodd"
viewBox="0 0 2460 1395"
 xmlns:xlink="http://www.w3.org/1999/xlink">
 <g id="Layer_x0020_1">
  <metadata id="CorelCorpID_0Corel-Layer"/>
  <g id="_1739218905232">
   <g>
    <g>
     <path fill="#EDEDED" stroke="#999999" stroke-width="33.3331" d="M1072 233c-121,0 -219,98 -219,218 0,121 98,219 219,219 120,0 219,-98 219,-219 0,-120 -99,-218 -219,-218z"/>
     <g>
      <g>
       <path fill="#EDEDED" stroke="#999999" stroke-width="33.3331" d="M1072 168c-24,0 -43,-19 -43,-42l0 -69c0,-23 19,-42 43,-42 24,0 43,19 43,42l0 69c0,23 -20,42 -43,42z"/>
      </g>
      <g>
       <path fill="#EDEDED" stroke="#999999" stroke-width="33.3331" d="M1072 734c-24,0 -43,19 -43,43l0 68c0,23 19,42 43,42 24,0 43,-19 43,-42l0 -68c0,-24 -20,-43 -43,-43z"/>
      </g>
      <g>
       <path fill="#EDEDED" stroke="#999999" stroke-width="33.3331" d="M1272 251c-17,-16 -17,-43 0,-60l48 -48c17,-17 44,-17 60,0 17,16 17,43 0,60l-48 48c-16,17 -43,17 -60,0z"/>
      </g>
      <g>
       <path fill="#EDEDED" stroke="#999999" stroke-width="33.3331" d="M872 651c-17,-17 -44,-17 -60,0l-49 48c-16,17 -16,44 0,61 17,16 44,16 61,0l48 -49c17,-16 17,-43 0,-60z"/>
      </g>
      <g>
       <path fill="#EDEDED" stroke="#999999" stroke-width="33.3331" d="M1355 451c0,-23 19,-43 42,-43l69 0c23,0 42,20 42,43 0,24 -19,43 -42,43l-69 0c-23,0 -42,-19 -42,-43z"/>
      </g>
      <g>
       <path fill="#EDEDED" stroke="#999999" stroke-width="33.3331" d="M789 451c0,-23 -19,-43 -42,-43l-69 0c-23,0 -42,20 -42,43 0,24 19,43 42,43l69 0c23,0 42,-19 42,-43z"/>
      </g>
      <g>
       <path fill="#EDEDED" stroke="#999999" stroke-width="33.3331" d="M1272 651c17,-17 44,-17 60,0l48 48c17,17 17,44 0,61 -16,16 -43,16 -60,0l-48 -49c-17,-16 -17,-43 0,-60z"/>
      </g>
      <g>
       <path fill="#EDEDED" stroke="#999999" stroke-width="33.3331" d="M872 251c17,-16 17,-43 0,-60l-48 -48c-17,-17 -44,-17 -61,0 -16,16 -16,43 0,60l49 48c16,17 43,17 60,0z"/>
      </g>
     </g>
    </g>
   </g>
   <g>
   </g>
   <g>
   </g>
   <g>
   </g>
   <g>
   </g>
   <g>
   </g>
   <g>
   </g>
   <g>
   </g>
   <g>
   </g>
   <g>
   </g>
   <g>
   </g>
   <g>
   </g>
   <g>
   </g>
   <g>
   </g>
   <g>
   </g>
   <g>
   </g>
  </g>
  <g id="_1739218900720">
   <g>
    <g>
     <path fill="#EDEDED" stroke="#999999" stroke-width="16.6665" d="M1078 594c4,-19 6,-38 6,-58 0,-175 -143,-317 -317,-317 -112,0 -215,60 -272,154 -77,-25 -155,-14 -220,31 -65,44 -103,115 -107,192 -85,41 -143,127 -143,222 0,16 4,32 7,48l0 0c23,115 125,198 242,198l704 0c136,0 249,-110 249,-246 0,-96 -59,-183 -149,-224z"/>
    </g>
   </g>
   <g>
   </g>
   <g>
   </g>
   <g>
   </g>
   <g>
   </g>
   <g>
   </g>
   <g>
   </g>
   <g>
   </g>
   <g>
   </g>
   <g>
   </g>
   <g>
   </g>
   <g>
   </g>
   <g>
   </g>
   <g>
   </g>
   <g>
   </g>
   <g>
   </g>
  </g>
  <path fill="whitesmoke" fill-rule="nonzero" d="M1664 731l0 -64 165 0c0,2 0,4 0,7 0,2 0,6 0,11 0,53 -14,94 -42,123 -28,30 -67,44 -118,44 -25,0 -47,-3 -67,-11 -19,-7 -37,-19 -52,-34 -15,-15 -26,-33 -34,-53 -8,-20 -12,-41 -12,-63 0,-23 4,-45 11,-64 8,-19 20,-37 36,-52 15,-15 33,-26 53,-34 20,-8 42,-12 65,-12 30,0 57,6 80,18 23,12 43,30 59,53l-73 35c-9,-12 -19,-20 -30,-26 -11,-6 -23,-9 -36,-9 -25,0 -45,8 -60,25 -14,17 -22,40 -22,69 0,29 8,53 22,69 15,17 35,26 60,26 21,0 39,-5 53,-16 15,-10 23,-24 25,-42l-83 0z"/>
  <path id="1" fill="whitesmoke" fill-rule="nonzero" d="M1960 845l-79 0 0 -309 88 0c34,0 59,2 72,5 14,3 26,9 36,17 11,10 20,22 26,36 6,14 9,30 9,47 0,18 -3,35 -9,49 -6,14 -15,25 -26,34 -9,7 -19,12 -31,15 -12,2 -31,4 -57,4l-14 0 -15 0 0 102zm0 -170l16 0c20,0 34,-3 42,-8 8,-6 12,-15 12,-29 0,-13 -4,-22 -12,-27 -7,-6 -21,-8 -41,-8l-17 0 0 72z"/>
  <path id="2" fill="whitesmoke" fill-rule="nonzero" d="M2378 548l0 92c-11,-13 -23,-22 -34,-28 -12,-6 -24,-9 -37,-9 -24,0 -44,8 -59,25 -15,16 -22,38 -22,64 0,25 8,46 23,62 15,16 35,24 58,24 13,0 25,-3 37,-8 11,-6 23,-16 34,-29l0 92c-13,7 -26,12 -39,15 -14,3 -27,5 -41,5 -16,0 -32,-2 -46,-6 -14,-4 -28,-10 -39,-19 -24,-15 -41,-34 -53,-58 -12,-23 -18,-50 -18,-79 0,-24 3,-45 11,-65 8,-19 19,-37 35,-52 14,-15 31,-27 49,-34 19,-8 39,-11 61,-11 14,0 27,1 41,5 13,3 26,8 39,14z"/>
  <path fill="whitesmoke" fill-rule="nonzero" d="M362 1238l58 0c0,1 0,2 0,4 0,5 0,8 0,10 0,20 -6,36 -18,48 -11,11 -28,17 -50,17 -12,0 -22,-2 -32,-6 -9,-3 -17,-8 -25,-16 -6,-7 -12,-15 -16,-24 -3,-10 -5,-20 -5,-31 0,-11 2,-21 6,-31 3,-9 9,-17 16,-24 8,-7 16,-13 26,-16 9,-4 19,-6 30,-6 12,0 22,2 31,6 10,5 18,11 25,20l-18 13c-5,-6 -10,-10 -16,-13 -7,-3 -13,-4 -21,-4 -16,0 -29,5 -39,15 -10,10 -15,24 -15,40 0,16 5,30 15,40 10,10 23,15 39,15 14,0 24,-3 32,-9 8,-6 12,-15 12,-26l0 -2 -35 0 0 -20z"/>
  <path id="1" fill="whitesmoke" fill-rule="nonzero" d="M533 1313l-22 0 0 -12c-4,5 -8,9 -13,12 -6,2 -12,4 -18,4 -14,0 -24,-5 -32,-14 -8,-9 -12,-22 -12,-38 0,-15 4,-27 12,-36 8,-10 18,-14 31,-14 8,0 15,1 20,5 6,3 10,7 12,14l0 -16 22 0 0 95zm-21 -48c0,-10 -2,-17 -7,-23 -5,-5 -11,-8 -19,-8 -9,0 -15,3 -20,9 -4,5 -7,13 -7,23 0,10 2,18 7,23 5,6 11,9 19,9 8,0 15,-3 19,-9 5,-6 8,-14 8,-24z"/>
  <path id="2" fill="whitesmoke" fill-rule="nonzero" d="M654 1319l-22 -50c-2,-4 -3,-7 -4,-10 -1,-3 -2,-6 -3,-9 -1,5 -3,8 -4,12 -1,3 -2,5 -3,6l-22 51 -49 -101 23 0 21 46c1,2 2,4 3,8 0,3 1,7 2,11 0,-3 0,-5 1,-8 1,-2 2,-5 4,-9l23 -51 2 0 23 51c2,3 3,6 4,9 0,2 1,5 1,8 1,-4 1,-7 2,-10 1,-4 2,-6 4,-9l20 -46 23 0 -49 101z"/>
  <path id="3" fill="whitesmoke" fill-rule="nonzero" d="M807 1313l-22 0 0 -12c-4,5 -9,9 -14,12 -5,2 -11,4 -18,4 -13,0 -24,-5 -31,-14 -8,-9 -12,-22 -12,-38 0,-15 4,-27 12,-36 8,-10 18,-14 31,-14 8,0 14,1 20,5 5,3 9,7 12,14l0 -16 22 0 0 95zm-22 -48c0,-10 -2,-17 -6,-23 -5,-5 -11,-8 -20,-8 -8,0 -14,3 -19,9 -5,5 -7,13 -7,23 0,10 2,18 7,23 4,6 11,9 19,9 8,0 14,-3 19,-9 5,-6 7,-14 7,-24z"/>
  <path id="4" fill="whitesmoke" fill-rule="nonzero" d="M835 1177c0,-4 1,-7 4,-9 2,-3 6,-4 9,-4 4,0 8,1 10,3 3,3 4,6 4,10 0,4 -1,7 -4,10 -3,2 -6,4 -10,4 -3,0 -7,-2 -9,-4 -3,-3 -4,-6 -4,-10zm3 136l0 -95 21 0 0 95 -21 0z"/>
  <path id="5" fill="whitesmoke" fill-rule="nonzero" d="M978 1228l6 0c13,0 22,-2 27,-5 4,-2 6,-8 6,-15 0,-8 -2,-13 -7,-16 -4,-3 -13,-5 -26,-5l-6 0 0 41zm-1 19l0 66 -23 0 0 -147 36 0c11,0 19,1 24,2 5,1 9,3 13,6 5,3 8,8 11,14 3,5 4,12 4,19 0,7 -1,13 -4,19 -3,6 -6,10 -11,14 -4,2 -8,4 -13,5 -5,2 -13,2 -24,2l-4 0 -9 0z"/>
  <path id="6" fill="whitesmoke" fill-rule="nonzero" d="M1060 1177c0,-4 1,-7 4,-9 3,-3 6,-4 10,-4 4,0 7,1 9,3 3,3 4,6 4,10 0,4 -1,7 -4,10 -2,2 -6,4 -9,4 -4,0 -7,-2 -10,-4 -3,-3 -4,-6 -4,-10zm3 136l0 -95 22 0 0 95 -22 0z"/>
  <path id="7" fill="whitesmoke" fill-rule="nonzero" d="M1116 1313l0 -95 20 0 0 16c4,-7 10,-12 15,-15 6,-3 13,-4 22,-4 7,0 13,1 18,3 5,2 9,6 12,10 1,3 3,6 3,9 1,4 1,10 1,18l0 58 -22 0 0 -49c0,-12 -1,-21 -4,-25 -3,-4 -9,-6 -16,-6 -5,0 -10,1 -14,3 -4,2 -7,5 -9,8 -2,2 -3,5 -4,9 0,3 -1,9 -1,17l0 43 -21 0z"/>
  <polygon id="8" fill="whitesmoke" fill-rule="nonzero" points="1241,1313 1241,1237 1225,1237 1225,1218 1241,1218 1241,1182 1263,1182 1263,1218 1280,1218 1280,1237 1263,1237 1263,1313 "/>
  <path id="9" fill="whitesmoke" fill-rule="nonzero" d="M1388 1313l-22 0 0 -12c-3,5 -8,9 -13,12 -5,2 -11,4 -18,4 -13,0 -24,-5 -32,-14 -8,-9 -11,-22 -11,-38 0,-15 4,-27 11,-36 8,-10 19,-14 31,-14 8,0 15,1 20,5 6,3 10,7 12,14l0 -16 22 0 0 95zm-21 -48c0,-10 -2,-17 -7,-23 -4,-5 -11,-8 -19,-8 -8,0 -15,3 -19,9 -5,5 -8,13 -8,23 0,10 3,18 7,23 5,6 11,9 20,9 7,0 14,-3 19,-9 5,-6 7,-14 7,-24z"/>
  <path id="10" fill="whitesmoke" fill-rule="nonzero" d="M1440 1233c2,-6 5,-11 9,-14 4,-3 9,-4 15,-4 3,0 6,0 9,1 3,1 6,2 8,3l-7 19c-2,-2 -4,-3 -6,-3 -3,-1 -5,-1 -8,-1 -7,0 -12,2 -15,8 -3,6 -5,16 -5,29l0 42 -22 0 0 -95 22 0 0 15z"/>
  <path id="11" fill="whitesmoke" fill-rule="nonzero" d="M1675 1202c-6,-6 -13,-10 -21,-13 -7,-3 -15,-4 -24,-4 -16,0 -29,5 -39,15 -10,11 -15,24 -15,40 0,16 5,29 15,39 10,11 22,16 37,16 9,0 17,-2 25,-5 8,-3 15,-8 22,-14l0 27c-6,5 -13,8 -21,10 -7,3 -15,4 -24,4 -11,0 -22,-2 -31,-6 -10,-3 -18,-9 -25,-16 -8,-7 -13,-15 -17,-25 -4,-9 -6,-19 -6,-30 0,-11 2,-21 6,-30 4,-10 9,-18 17,-25 7,-7 15,-13 25,-16 9,-4 19,-6 30,-6 9,0 17,1 25,4 8,2 15,6 23,11l-2 24z"/>
  <path id="12" fill="whitesmoke" fill-rule="nonzero" d="M1724 1218l0 54c0,9 2,15 6,19 4,4 10,6 19,6 8,0 14,-2 18,-6 4,-4 6,-10 6,-19l0 -54 22 0 0 47c0,18 -4,31 -11,39 -8,9 -19,13 -35,13 -16,0 -28,-4 -35,-12 -8,-9 -11,-22 -11,-40l0 -47 21 0z"/>
  <path id="13" fill="whitesmoke" fill-rule="nonzero" d="M1914 1313l-22 0 0 -12c-4,5 -9,9 -14,12 -5,2 -11,4 -18,4 -13,0 -24,-5 -31,-14 -8,-9 -12,-22 -12,-38 0,-15 4,-27 12,-36 8,-10 18,-14 31,-14 8,0 14,1 20,5 5,3 9,7 12,14l0 -16 22 0 0 95zm-22 -48c0,-10 -2,-17 -6,-23 -5,-5 -11,-8 -20,-8 -8,0 -14,3 -19,9 -5,5 -7,13 -7,23 0,10 2,18 7,23 4,6 11,9 19,9 8,0 14,-3 19,-9 5,-6 7,-14 7,-24z"/>
  <path id="14" fill="whitesmoke" fill-rule="nonzero" d="M2015 1245c-4,-4 -8,-6 -12,-8 -5,-2 -9,-3 -14,-3 -9,0 -16,3 -22,8 -5,6 -8,14 -8,23 0,10 3,18 8,23 6,6 13,9 23,9 5,0 10,-1 14,-3 4,-2 7,-5 11,-9l0 25c-4,2 -9,4 -13,5 -5,1 -10,2 -15,2 -15,0 -27,-5 -36,-14 -10,-10 -14,-22 -14,-37 0,-15 4,-28 14,-37 10,-10 23,-14 38,-14 5,0 10,0 14,1 4,1 8,3 12,5l0 24z"/>
  <path id="15" fill="whitesmoke" fill-rule="nonzero" d="M2126 1313l-21 0 0 -12c-4,5 -9,9 -14,12 -5,2 -11,4 -18,4 -13,0 -24,-5 -32,-14 -7,-9 -11,-22 -11,-38 0,-15 4,-27 12,-36 8,-10 18,-14 31,-14 7,0 14,1 20,5 5,3 9,7 12,14l0 -16 21 0 0 95zm-21 -48c0,-10 -2,-17 -7,-23 -4,-5 -11,-8 -19,-8 -8,0 -15,3 -19,9 -5,5 -7,13 -7,23 0,10 2,18 6,23 5,6 11,9 20,9 8,0 14,-3 19,-9 5,-6 7,-14 7,-24z"/>
 </g>
</svg>
